<?xml version="1.0" encoding="UTF-8" standalone="no"?>
<!DOCTYPE svg PUBLIC "-//W3C//DTD SVG 1.1//EN"
 "http://www.w3.org/Graphics/SVG/1.1/DTD/svg11.dtd">
<!-- Generated by graphviz version 3.0.0 (0)
 -->
<!-- Title: snakemake_dag Pages: 1 -->
<svg width="492pt" height="404pt"
 viewBox="0.00 0.00 491.50 404.00" xmlns="http://www.w3.org/2000/svg" xmlns:xlink="http://www.w3.org/1999/xlink">
<g id="graph0" class="graph" transform="scale(1 1) rotate(0) translate(4 400)">
<title>snakemake_dag</title>
<polygon fill="white" stroke="transparent" points="-4,4 -4,-400 487.5,-400 487.5,4 -4,4"/>
<!-- 0 -->
<g id="node1" class="node">
<title>0</title>
<path fill="none" stroke="#c6d856" stroke-width="2" d="M232,-36C232,-36 202,-36 202,-36 196,-36 190,-30 190,-24 190,-24 190,-12 190,-12 190,-6 196,0 202,0 202,0 232,0 232,0 238,0 244,-6 244,-12 244,-12 244,-24 244,-24 244,-30 238,-36 232,-36"/>
<text text-anchor="middle" x="217" y="-15.5" font-family="sans" font-size="10.00">all</text>
</g>
<!-- 1 -->
<g id="node2" class="node">
<title>1</title>
<path fill="none" stroke="#d8a456" stroke-width="2" d="M224,-396C224,-396 194,-396 194,-396 188,-396 182,-390 182,-384 182,-384 182,-372 182,-372 182,-366 188,-360 194,-360 194,-360 224,-360 224,-360 230,-360 236,-366 236,-372 236,-372 236,-384 236,-384 236,-390 230,-396 224,-396"/>
<text text-anchor="middle" x="209" y="-375.5" font-family="sans" font-size="10.00">PCA</text>
</g>
<!-- 1&#45;&gt;0 -->
<g id="edge1" class="edge">
<title>1&#45;&gt;0</title>
<path fill="none" stroke="grey" stroke-width="2" d="M181.68,-371.81C125.02,-359.3 0,-321.86 0,-235 0,-235 0,-235 0,-161 0,-118.16 5.12,-100.62 37,-72 76.83,-36.24 139.69,-24.55 179.6,-20.76"/>
<polygon fill="grey" stroke="grey" stroke-width="2" points="180.04,-24.24 189.72,-19.93 179.46,-17.26 180.04,-24.24"/>
</g>
<!-- 4 -->
<g id="node5" class="node">
<title>4</title>
<path fill="none" stroke="#56d8c9" stroke-width="2" d="M158,-252C158,-252 40,-252 40,-252 34,-252 28,-246 28,-240 28,-240 28,-228 28,-228 28,-222 34,-216 40,-216 40,-216 158,-216 158,-216 164,-216 170,-222 170,-228 170,-228 170,-240 170,-240 170,-246 164,-252 158,-252"/>
<text text-anchor="middle" x="99" y="-237" font-family="sans" font-size="10.00">dge</text>
<text text-anchor="middle" x="99" y="-226" font-family="sans" font-size="10.00">contrast: mild_vs_unaffected</text>
</g>
<!-- 1&#45;&gt;4 -->
<g id="edge11" class="edge">
<title>1&#45;&gt;4</title>
<path fill="none" stroke="grey" stroke-width="2" d="M195.73,-359.87C176.49,-335.03 140.71,-288.85 118.48,-260.14"/>
<polygon fill="grey" stroke="grey" stroke-width="2" points="121.21,-257.95 112.32,-252.19 115.67,-262.24 121.21,-257.95"/>
</g>
<!-- 5 -->
<g id="node6" class="node">
<title>5</title>
<path fill="none" stroke="#d85656" stroke-width="2" d="M279,-324C279,-324 249,-324 249,-324 243,-324 237,-318 237,-312 237,-312 237,-300 237,-300 237,-294 243,-288 249,-288 249,-288 279,-288 279,-288 285,-288 291,-294 291,-300 291,-300 291,-312 291,-312 291,-318 285,-324 279,-324"/>
<text text-anchor="middle" x="264" y="-303.5" font-family="sans" font-size="10.00">design</text>
</g>
<!-- 1&#45;&gt;5 -->
<g id="edge12" class="edge">
<title>1&#45;&gt;5</title>
<path fill="none" stroke="grey" stroke-width="2" d="M222.6,-359.7C229.12,-351.39 237.07,-341.28 244.25,-332.14"/>
<polygon fill="grey" stroke="grey" stroke-width="2" points="247.13,-334.13 250.56,-324.1 241.63,-329.81 247.13,-334.13"/>
</g>
<!-- 8 -->
<g id="node9" class="node">
<title>8</title>
<path fill="none" stroke="#56d8c9" stroke-width="2" d="M328,-252C328,-252 200,-252 200,-252 194,-252 188,-246 188,-240 188,-240 188,-228 188,-228 188,-222 194,-216 200,-216 200,-216 328,-216 328,-216 334,-216 340,-222 340,-228 340,-228 340,-240 340,-240 340,-246 334,-252 328,-252"/>
<text text-anchor="middle" x="264" y="-237" font-family="sans" font-size="10.00">dge</text>
<text text-anchor="middle" x="264" y="-226" font-family="sans" font-size="10.00">contrast: severe_vs_unaffected</text>
</g>
<!-- 1&#45;&gt;8 -->
<g id="edge16" class="edge">
<title>1&#45;&gt;8</title>
<path fill="none" stroke="grey" stroke-width="2" d="M210.7,-359.67C212.95,-341.29 217.89,-311.69 228,-288 232.08,-278.43 237.99,-268.78 243.84,-260.39"/>
<polygon fill="grey" stroke="grey" stroke-width="2" points="246.78,-262.29 249.84,-252.15 241.12,-258.17 246.78,-262.29"/>
</g>
<!-- 11 -->
<g id="node12" class="node">
<title>11</title>
<path fill="none" stroke="#56d8c9" stroke-width="2" d="M471.5,-252C471.5,-252 370.5,-252 370.5,-252 364.5,-252 358.5,-246 358.5,-240 358.5,-240 358.5,-228 358.5,-228 358.5,-222 364.5,-216 370.5,-216 370.5,-216 471.5,-216 471.5,-216 477.5,-216 483.5,-222 483.5,-228 483.5,-228 483.5,-240 483.5,-240 483.5,-246 477.5,-252 471.5,-252"/>
<text text-anchor="middle" x="421" y="-237" font-family="sans" font-size="10.00">dge</text>
<text text-anchor="middle" x="421" y="-226" font-family="sans" font-size="10.00">contrast: mild_vs_severe</text>
</g>
<!-- 1&#45;&gt;11 -->
<g id="edge20" class="edge">
<title>1&#45;&gt;11</title>
<path fill="none" stroke="grey" stroke-width="2" d="M236.13,-362.2C254.47,-351.96 279.06,-337.74 300,-324 331.98,-303.01 367.05,-276.85 391.16,-258.34"/>
<polygon fill="grey" stroke="grey" stroke-width="2" points="393.42,-261.01 399.2,-252.13 389.15,-255.47 393.42,-261.01"/>
</g>
<!-- 2 -->
<g id="node3" class="node">
<title>2</title>
<path fill="none" stroke="#56a2d8" stroke-width="2" d="M160,-108C160,-108 130,-108 130,-108 124,-108 118,-102 118,-96 118,-96 118,-84 118,-84 118,-78 124,-72 130,-72 130,-72 160,-72 160,-72 166,-72 172,-78 172,-84 172,-84 172,-96 172,-96 172,-102 166,-108 160,-108"/>
<text text-anchor="middle" x="145" y="-87.5" font-family="sans" font-size="10.00">ora</text>
</g>
<!-- 2&#45;&gt;0 -->
<g id="edge2" class="edge">
<title>2&#45;&gt;0</title>
<path fill="none" stroke="grey" stroke-width="2" d="M162.8,-71.7C171.6,-63.14 182.38,-52.66 192,-43.3"/>
<polygon fill="grey" stroke="grey" stroke-width="2" points="194.68,-45.58 199.41,-36.1 189.8,-40.57 194.68,-45.58"/>
</g>
<!-- 3 -->
<g id="node4" class="node">
<title>3</title>
<path fill="none" stroke="#78d856" stroke-width="2" d="M157,-180C157,-180 117,-180 117,-180 111,-180 105,-174 105,-168 105,-168 105,-156 105,-156 105,-150 111,-144 117,-144 117,-144 157,-144 157,-144 163,-144 169,-150 169,-156 169,-156 169,-168 169,-168 169,-174 163,-180 157,-180"/>
<text text-anchor="middle" x="137" y="-159.5" font-family="sans" font-size="10.00">select_deg</text>
</g>
<!-- 3&#45;&gt;2 -->
<g id="edge8" class="edge">
<title>3&#45;&gt;2</title>
<path fill="none" stroke="grey" stroke-width="2" d="M138.98,-143.7C139.86,-135.98 140.92,-126.71 141.9,-118.11"/>
<polygon fill="grey" stroke="grey" stroke-width="2" points="145.39,-118.44 143.05,-108.1 138.43,-117.64 145.39,-118.44"/>
</g>
<!-- 4&#45;&gt;3 -->
<g id="edge9" class="edge">
<title>4&#45;&gt;3</title>
<path fill="none" stroke="grey" stroke-width="2" d="M108.39,-215.7C112.76,-207.64 118.06,-197.89 122.9,-188.98"/>
<polygon fill="grey" stroke="grey" stroke-width="2" points="126.02,-190.56 127.71,-180.1 119.87,-187.22 126.02,-190.56"/>
</g>
<!-- 12 -->
<g id="node13" class="node">
<title>12</title>
<path fill="none" stroke="#56d87b" stroke-width="2" d="M88,-108C88,-108 58,-108 58,-108 52,-108 46,-102 46,-96 46,-96 46,-84 46,-84 46,-78 52,-72 58,-72 58,-72 88,-72 88,-72 94,-72 100,-78 100,-84 100,-84 100,-96 100,-96 100,-102 94,-108 88,-108"/>
<text text-anchor="middle" x="73" y="-87.5" font-family="sans" font-size="10.00">fgsea</text>
</g>
<!-- 4&#45;&gt;12 -->
<g id="edge21" class="edge">
<title>4&#45;&gt;12</title>
<path fill="none" stroke="grey" stroke-width="2" d="M95.86,-215.87C91.43,-191.67 83.29,-147.21 78.02,-118.39"/>
<polygon fill="grey" stroke="grey" stroke-width="2" points="81.39,-117.4 76.15,-108.19 74.51,-118.66 81.39,-117.4"/>
</g>
<!-- 5&#45;&gt;4 -->
<g id="edge10" class="edge">
<title>5&#45;&gt;4</title>
<path fill="none" stroke="grey" stroke-width="2" d="M236.75,-293.44C212.91,-283.32 177.66,-268.37 148.79,-256.12"/>
<polygon fill="grey" stroke="grey" stroke-width="2" points="149.84,-252.77 139.26,-252.08 147.1,-259.21 149.84,-252.77"/>
</g>
<!-- 5&#45;&gt;8 -->
<g id="edge15" class="edge">
<title>5&#45;&gt;8</title>
<path fill="none" stroke="grey" stroke-width="2" d="M264,-287.7C264,-279.98 264,-270.71 264,-262.11"/>
<polygon fill="grey" stroke="grey" stroke-width="2" points="267.5,-262.1 264,-252.1 260.5,-262.1 267.5,-262.1"/>
</g>
<!-- 5&#45;&gt;11 -->
<g id="edge19" class="edge">
<title>5&#45;&gt;11</title>
<path fill="none" stroke="grey" stroke-width="2" d="M291.35,-292.81C313.98,-282.72 346.66,-268.14 373.55,-256.16"/>
<polygon fill="grey" stroke="grey" stroke-width="2" points="375.09,-259.3 382.79,-252.03 372.24,-252.91 375.09,-259.3"/>
</g>
<!-- 6 -->
<g id="node7" class="node">
<title>6</title>
<path fill="none" stroke="#56a2d8" stroke-width="2" d="M232,-108C232,-108 202,-108 202,-108 196,-108 190,-102 190,-96 190,-96 190,-84 190,-84 190,-78 196,-72 202,-72 202,-72 232,-72 232,-72 238,-72 244,-78 244,-84 244,-84 244,-96 244,-96 244,-102 238,-108 232,-108"/>
<text text-anchor="middle" x="217" y="-87.5" font-family="sans" font-size="10.00">ora</text>
</g>
<!-- 6&#45;&gt;0 -->
<g id="edge3" class="edge">
<title>6&#45;&gt;0</title>
<path fill="none" stroke="grey" stroke-width="2" d="M217,-71.7C217,-63.98 217,-54.71 217,-46.11"/>
<polygon fill="grey" stroke="grey" stroke-width="2" points="220.5,-46.1 217,-36.1 213.5,-46.1 220.5,-46.1"/>
</g>
<!-- 7 -->
<g id="node8" class="node">
<title>7</title>
<path fill="none" stroke="#78d856" stroke-width="2" d="M240,-180C240,-180 200,-180 200,-180 194,-180 188,-174 188,-168 188,-168 188,-156 188,-156 188,-150 194,-144 200,-144 200,-144 240,-144 240,-144 246,-144 252,-150 252,-156 252,-156 252,-168 252,-168 252,-174 246,-180 240,-180"/>
<text text-anchor="middle" x="220" y="-159.5" font-family="sans" font-size="10.00">select_deg</text>
</g>
<!-- 7&#45;&gt;6 -->
<g id="edge13" class="edge">
<title>7&#45;&gt;6</title>
<path fill="none" stroke="grey" stroke-width="2" d="M219.26,-143.7C218.93,-135.98 218.53,-126.71 218.16,-118.11"/>
<polygon fill="grey" stroke="grey" stroke-width="2" points="221.66,-117.95 217.73,-108.1 214.66,-118.25 221.66,-117.95"/>
</g>
<!-- 8&#45;&gt;7 -->
<g id="edge14" class="edge">
<title>8&#45;&gt;7</title>
<path fill="none" stroke="grey" stroke-width="2" d="M253.12,-215.7C248.01,-207.56 241.8,-197.69 236.16,-188.7"/>
<polygon fill="grey" stroke="grey" stroke-width="2" points="239.04,-186.71 230.75,-180.1 233.11,-190.43 239.04,-186.71"/>
</g>
<!-- 13 -->
<g id="node14" class="node">
<title>13</title>
<path fill="none" stroke="#56d87b" stroke-width="2" d="M304,-108C304,-108 274,-108 274,-108 268,-108 262,-102 262,-96 262,-96 262,-84 262,-84 262,-78 268,-72 274,-72 274,-72 304,-72 304,-72 310,-72 316,-78 316,-84 316,-84 316,-96 316,-96 316,-102 310,-108 304,-108"/>
<text text-anchor="middle" x="289" y="-87.5" font-family="sans" font-size="10.00">fgsea</text>
</g>
<!-- 8&#45;&gt;13 -->
<g id="edge22" class="edge">
<title>8&#45;&gt;13</title>
<path fill="none" stroke="grey" stroke-width="2" d="M267.02,-215.87C271.28,-191.67 279.1,-147.21 284.18,-118.39"/>
<polygon fill="grey" stroke="grey" stroke-width="2" points="287.69,-118.64 285.97,-108.19 280.79,-117.43 287.69,-118.64"/>
</g>
<!-- 9 -->
<g id="node10" class="node">
<title>9</title>
<path fill="none" stroke="#56a2d8" stroke-width="2" d="M425,-108C425,-108 395,-108 395,-108 389,-108 383,-102 383,-96 383,-96 383,-84 383,-84 383,-78 389,-72 395,-72 395,-72 425,-72 425,-72 431,-72 437,-78 437,-84 437,-84 437,-96 437,-96 437,-102 431,-108 425,-108"/>
<text text-anchor="middle" x="410" y="-87.5" font-family="sans" font-size="10.00">ora</text>
</g>
<!-- 9&#45;&gt;0 -->
<g id="edge4" class="edge">
<title>9&#45;&gt;0</title>
<path fill="none" stroke="grey" stroke-width="2" d="M382.76,-79.12C348.99,-66.87 291.32,-45.95 253.68,-32.3"/>
<polygon fill="grey" stroke="grey" stroke-width="2" points="254.7,-28.95 244.1,-28.83 252.31,-35.53 254.7,-28.95"/>
</g>
<!-- 10 -->
<g id="node11" class="node">
<title>10</title>
<path fill="none" stroke="#78d856" stroke-width="2" d="M441,-180C441,-180 401,-180 401,-180 395,-180 389,-174 389,-168 389,-168 389,-156 389,-156 389,-150 395,-144 401,-144 401,-144 441,-144 441,-144 447,-144 453,-150 453,-156 453,-156 453,-168 453,-168 453,-174 447,-180 441,-180"/>
<text text-anchor="middle" x="421" y="-159.5" font-family="sans" font-size="10.00">select_deg</text>
</g>
<!-- 10&#45;&gt;9 -->
<g id="edge17" class="edge">
<title>10&#45;&gt;9</title>
<path fill="none" stroke="grey" stroke-width="2" d="M418.28,-143.7C417.07,-135.98 415.61,-126.71 414.26,-118.11"/>
<polygon fill="grey" stroke="grey" stroke-width="2" points="417.7,-117.44 412.69,-108.1 410.78,-118.53 417.7,-117.44"/>
</g>
<!-- 11&#45;&gt;10 -->
<g id="edge18" class="edge">
<title>11&#45;&gt;10</title>
<path fill="none" stroke="grey" stroke-width="2" d="M421,-215.7C421,-207.98 421,-198.71 421,-190.11"/>
<polygon fill="grey" stroke="grey" stroke-width="2" points="424.5,-190.1 421,-180.1 417.5,-190.1 424.5,-190.1"/>
</g>
<!-- 14 -->
<g id="node15" class="node">
<title>14</title>
<path fill="none" stroke="#56d87b" stroke-width="2" d="M359,-180C359,-180 329,-180 329,-180 323,-180 317,-174 317,-168 317,-168 317,-156 317,-156 317,-150 323,-144 329,-144 329,-144 359,-144 359,-144 365,-144 371,-150 371,-156 371,-156 371,-168 371,-168 371,-174 365,-180 359,-180"/>
<text text-anchor="middle" x="344" y="-159.5" font-family="sans" font-size="10.00">fgsea</text>
</g>
<!-- 11&#45;&gt;14 -->
<g id="edge23" class="edge">
<title>11&#45;&gt;14</title>
<path fill="none" stroke="grey" stroke-width="2" d="M401.97,-215.7C392.46,-207.05 380.79,-196.45 370.43,-187.03"/>
<polygon fill="grey" stroke="grey" stroke-width="2" points="372.57,-184.24 362.81,-180.1 367.86,-189.42 372.57,-184.24"/>
</g>
<!-- 12&#45;&gt;0 -->
<g id="edge5" class="edge">
<title>12&#45;&gt;0</title>
<path fill="none" stroke="grey" stroke-width="2" d="M100.09,-75.83C122.77,-64.81 155.36,-48.97 180.37,-36.81"/>
<polygon fill="grey" stroke="grey" stroke-width="2" points="182.08,-39.87 189.55,-32.35 179.02,-33.57 182.08,-39.87"/>
</g>
<!-- 13&#45;&gt;0 -->
<g id="edge6" class="edge">
<title>13&#45;&gt;0</title>
<path fill="none" stroke="grey" stroke-width="2" d="M271.2,-71.7C262.4,-63.14 251.62,-52.66 242,-43.3"/>
<polygon fill="grey" stroke="grey" stroke-width="2" points="244.2,-40.57 234.59,-36.1 239.32,-45.58 244.2,-40.57"/>
</g>
<!-- 14&#45;&gt;0 -->
<g id="edge7" class="edge">
<title>14&#45;&gt;0</title>
<path fill="none" stroke="grey" stroke-width="2" d="M344.59,-143.75C344.37,-124.34 341.23,-92.8 325,-72 307.47,-49.52 277.92,-35.95 254.17,-28.17"/>
<polygon fill="grey" stroke="grey" stroke-width="2" points="254.98,-24.76 244.39,-25.18 252.93,-31.45 254.98,-24.76"/>
</g>
</g>
</svg>
