<?xml version="1.0" encoding="UTF-8" standalone="no"?>
<!DOCTYPE svg PUBLIC "-//W3C//DTD SVG 1.1//EN"
 "http://www.w3.org/Graphics/SVG/1.1/DTD/svg11.dtd">
<!-- Generated by graphviz version 3.0.0 (0)
 -->
<!-- Title: snakemake_dag Pages: 1 -->
<svg width="2004pt" height="332pt"
 viewBox="0.00 0.00 2003.50 332.00" xmlns="http://www.w3.org/2000/svg" xmlns:xlink="http://www.w3.org/1999/xlink">
<g id="graph0" class="graph" transform="scale(1 1) rotate(0) translate(4 328)">
<title>snakemake_dag</title>
<polygon fill="white" stroke="transparent" points="-4,4 -4,-328 1999.5,-328 1999.5,4 -4,4"/>
<!-- 0 -->
<g id="node1" class="node">
<title>0</title>
<path fill="none" stroke="#56d8d8" stroke-width="2" stroke-dasharray="5,2" d="M931.5,-36C931.5,-36 901.5,-36 901.5,-36 895.5,-36 889.5,-30 889.5,-24 889.5,-24 889.5,-12 889.5,-12 889.5,-6 895.5,0 901.5,0 901.5,0 931.5,0 931.5,0 937.5,0 943.5,-6 943.5,-12 943.5,-12 943.5,-24 943.5,-24 943.5,-30 937.5,-36 931.5,-36"/>
<text text-anchor="middle" x="916.5" y="-15.5" font-family="sans" font-size="10.00">all</text>
</g>
<!-- 1 -->
<g id="node2" class="node">
<title>1</title>
<path fill="none" stroke="#569ad8" stroke-width="2" stroke-dasharray="5,2" d="M936.5,-252C936.5,-252 896.5,-252 896.5,-252 890.5,-252 884.5,-246 884.5,-240 884.5,-240 884.5,-228 884.5,-228 884.5,-222 890.5,-216 896.5,-216 896.5,-216 936.5,-216 936.5,-216 942.5,-216 948.5,-222 948.5,-228 948.5,-228 948.5,-240 948.5,-240 948.5,-246 942.5,-252 936.5,-252"/>
<text text-anchor="middle" x="916.5" y="-231.5" font-family="sans" font-size="10.00">dge_limma</text>
</g>
<!-- 1&#45;&gt;0 -->
<g id="edge1" class="edge">
<title>1&#45;&gt;0</title>
<path fill="none" stroke="grey" stroke-width="2" d="M884.29,-232.06C778.13,-228.64 444.14,-215.14 412.5,-180 278.02,-30.64 741.58,-18.98 879.15,-18.75"/>
<polygon fill="grey" stroke="grey" stroke-width="2" points="879.22,-22.25 889.22,-18.75 879.22,-15.25 879.22,-22.25"/>
</g>
<!-- 4 -->
<g id="node5" class="node">
<title>4</title>
<path fill="none" stroke="#d89556" stroke-width="2" stroke-dasharray="5,2" d="M593.5,-180C593.5,-180 433.5,-180 433.5,-180 427.5,-180 421.5,-174 421.5,-168 421.5,-168 421.5,-156 421.5,-156 421.5,-150 427.5,-144 433.5,-144 433.5,-144 593.5,-144 593.5,-144 599.5,-144 605.5,-150 605.5,-156 605.5,-156 605.5,-168 605.5,-168 605.5,-174 599.5,-180 593.5,-180"/>
<text text-anchor="middle" x="513.5" y="-165" font-family="sans" font-size="10.00">select_deg_limma</text>
<text text-anchor="middle" x="513.5" y="-154" font-family="sans" font-size="10.00">contrast: affected_D_vs_unaffected_D</text>
</g>
<!-- 1&#45;&gt;4 -->
<g id="edge16" class="edge">
<title>1&#45;&gt;4</title>
<path fill="none" stroke="grey" stroke-width="2" d="M884.2,-227.39C826.65,-217.39 704.11,-196.11 615.65,-180.74"/>
<polygon fill="grey" stroke="grey" stroke-width="2" points="616.03,-177.26 605.58,-178.99 614.83,-184.15 616.03,-177.26"/>
</g>
<!-- 6 -->
<g id="node7" class="node">
<title>6</title>
<path fill="none" stroke="#d89556" stroke-width="2" stroke-dasharray="5,2" d="M795.5,-180C795.5,-180 635.5,-180 635.5,-180 629.5,-180 623.5,-174 623.5,-168 623.5,-168 623.5,-156 623.5,-156 623.5,-150 629.5,-144 635.5,-144 635.5,-144 795.5,-144 795.5,-144 801.5,-144 807.5,-150 807.5,-156 807.5,-156 807.5,-168 807.5,-168 807.5,-174 801.5,-180 795.5,-180"/>
<text text-anchor="middle" x="715.5" y="-165" font-family="sans" font-size="10.00">select_deg_limma</text>
<text text-anchor="middle" x="715.5" y="-154" font-family="sans" font-size="10.00">contrast: affected_N_vs_unaffected_N</text>
</g>
<!-- 1&#45;&gt;6 -->
<g id="edge18" class="edge">
<title>1&#45;&gt;6</title>
<path fill="none" stroke="grey" stroke-width="2" d="M884.21,-221.75C854.69,-211.47 810.31,-196.02 774.47,-183.54"/>
<polygon fill="grey" stroke="grey" stroke-width="2" points="775.21,-180.09 764.61,-180.1 772.9,-186.7 775.21,-180.09"/>
</g>
<!-- 8 -->
<g id="node9" class="node">
<title>8</title>
<path fill="none" stroke="#d89556" stroke-width="2" stroke-dasharray="5,2" d="M995.5,-180C995.5,-180 837.5,-180 837.5,-180 831.5,-180 825.5,-174 825.5,-168 825.5,-168 825.5,-156 825.5,-156 825.5,-150 831.5,-144 837.5,-144 837.5,-144 995.5,-144 995.5,-144 1001.5,-144 1007.5,-150 1007.5,-156 1007.5,-156 1007.5,-168 1007.5,-168 1007.5,-174 1001.5,-180 995.5,-180"/>
<text text-anchor="middle" x="916.5" y="-165" font-family="sans" font-size="10.00">select_deg_limma</text>
<text text-anchor="middle" x="916.5" y="-154" font-family="sans" font-size="10.00">contrast: affected_E_vs_unaffected_E</text>
</g>
<!-- 1&#45;&gt;8 -->
<g id="edge20" class="edge">
<title>1&#45;&gt;8</title>
<path fill="none" stroke="grey" stroke-width="2" d="M916.5,-215.7C916.5,-207.98 916.5,-198.71 916.5,-190.11"/>
<polygon fill="grey" stroke="grey" stroke-width="2" points="920,-190.1 916.5,-180.1 913,-190.1 920,-190.1"/>
</g>
<!-- 10 -->
<g id="node11" class="node">
<title>10</title>
<path fill="none" stroke="#d89556" stroke-width="2" stroke-dasharray="5,2" d="M97,-180C97,-180 12,-180 12,-180 6,-180 0,-174 0,-168 0,-168 0,-156 0,-156 0,-150 6,-144 12,-144 12,-144 97,-144 97,-144 103,-144 109,-150 109,-156 109,-156 109,-168 109,-168 109,-174 103,-180 97,-180"/>
<text text-anchor="middle" x="54.5" y="-165" font-family="sans" font-size="10.00">select_deg_limma</text>
<text text-anchor="middle" x="54.5" y="-154" font-family="sans" font-size="10.00">contrast: D_vs_E_int</text>
</g>
<!-- 1&#45;&gt;10 -->
<g id="edge22" class="edge">
<title>1&#45;&gt;10</title>
<path fill="none" stroke="grey" stroke-width="2" d="M884.32,-233.08C776.93,-232.9 421.18,-228.54 119.42,-179.94"/>
<polygon fill="grey" stroke="grey" stroke-width="2" points="119.59,-176.42 109.16,-178.26 118.47,-183.33 119.59,-176.42"/>
</g>
<!-- 12 -->
<g id="node13" class="node">
<title>12</title>
<path fill="none" stroke="#d89556" stroke-width="2" stroke-dasharray="5,2" d="M225.5,-180C225.5,-180 139.5,-180 139.5,-180 133.5,-180 127.5,-174 127.5,-168 127.5,-168 127.5,-156 127.5,-156 127.5,-150 133.5,-144 139.5,-144 139.5,-144 225.5,-144 225.5,-144 231.5,-144 237.5,-150 237.5,-156 237.5,-156 237.5,-168 237.5,-168 237.5,-174 231.5,-180 225.5,-180"/>
<text text-anchor="middle" x="182.5" y="-165" font-family="sans" font-size="10.00">select_deg_limma</text>
<text text-anchor="middle" x="182.5" y="-154" font-family="sans" font-size="10.00">contrast: D_vs_N_int</text>
</g>
<!-- 1&#45;&gt;12 -->
<g id="edge24" class="edge">
<title>1&#45;&gt;12</title>
<path fill="none" stroke="grey" stroke-width="2" d="M884.17,-232.51C788.25,-230.61 497,-221.72 247.5,-179.98"/>
<polygon fill="grey" stroke="grey" stroke-width="2" points="247.96,-176.51 237.52,-178.29 246.79,-183.41 247.96,-176.51"/>
</g>
<!-- 14 -->
<g id="node15" class="node">
<title>14</title>
<path fill="none" stroke="#d89556" stroke-width="2" stroke-dasharray="5,2" d="M353,-180C353,-180 268,-180 268,-180 262,-180 256,-174 256,-168 256,-168 256,-156 256,-156 256,-150 262,-144 268,-144 268,-144 353,-144 353,-144 359,-144 365,-150 365,-156 365,-156 365,-168 365,-168 365,-174 359,-180 353,-180"/>
<text text-anchor="middle" x="310.5" y="-165" font-family="sans" font-size="10.00">select_deg_limma</text>
<text text-anchor="middle" x="310.5" y="-154" font-family="sans" font-size="10.00">contrast: N_vs_E_int</text>
</g>
<!-- 1&#45;&gt;14 -->
<g id="edge26" class="edge">
<title>1&#45;&gt;14</title>
<path fill="none" stroke="grey" stroke-width="2" d="M884.21,-231.43C800.39,-227 569.24,-212.57 379.5,-180 378.2,-179.78 376.89,-179.54 375.57,-179.3"/>
<polygon fill="grey" stroke="grey" stroke-width="2" points="375.83,-175.78 365.34,-177.26 374.46,-182.65 375.83,-175.78"/>
</g>
<!-- 15 -->
<g id="node16" class="node">
<title>15</title>
<path fill="none" stroke="#97d856" stroke-width="2" stroke-dasharray="5,2" d="M1581.5,-180C1581.5,-180 1421.5,-180 1421.5,-180 1415.5,-180 1409.5,-174 1409.5,-168 1409.5,-168 1409.5,-156 1409.5,-156 1409.5,-150 1415.5,-144 1421.5,-144 1421.5,-144 1581.5,-144 1581.5,-144 1587.5,-144 1593.5,-150 1593.5,-156 1593.5,-156 1593.5,-168 1593.5,-168 1593.5,-174 1587.5,-180 1581.5,-180"/>
<text text-anchor="middle" x="1501.5" y="-165" font-family="sans" font-size="10.00">fgsea</text>
<text text-anchor="middle" x="1501.5" y="-154" font-family="sans" font-size="10.00">contrast: affected_D_vs_unaffected_D</text>
</g>
<!-- 1&#45;&gt;15 -->
<g id="edge27" class="edge">
<title>1&#45;&gt;15</title>
<path fill="none" stroke="grey" stroke-width="2" d="M948.58,-230.13C1024.85,-223.18 1223.2,-204.28 1399.37,-180.11"/>
<polygon fill="grey" stroke="grey" stroke-width="2" points="1399.91,-183.57 1409.34,-178.74 1398.95,-176.64 1399.91,-183.57"/>
</g>
<!-- 18 -->
<g id="node19" class="node">
<title>18</title>
<path fill="none" stroke="#97d856" stroke-width="2" stroke-dasharray="5,2" d="M1783.5,-180C1783.5,-180 1623.5,-180 1623.5,-180 1617.5,-180 1611.5,-174 1611.5,-168 1611.5,-168 1611.5,-156 1611.5,-156 1611.5,-150 1617.5,-144 1623.5,-144 1623.5,-144 1783.5,-144 1783.5,-144 1789.5,-144 1795.5,-150 1795.5,-156 1795.5,-156 1795.5,-168 1795.5,-168 1795.5,-174 1789.5,-180 1783.5,-180"/>
<text text-anchor="middle" x="1703.5" y="-165" font-family="sans" font-size="10.00">fgsea</text>
<text text-anchor="middle" x="1703.5" y="-154" font-family="sans" font-size="10.00">contrast: affected_N_vs_unaffected_N</text>
</g>
<!-- 1&#45;&gt;18 -->
<g id="edge30" class="edge">
<title>1&#45;&gt;18</title>
<path fill="none" stroke="grey" stroke-width="2" d="M948.75,-231.54C1045.79,-226.92 1343.74,-211.15 1601.06,-180.11"/>
<polygon fill="grey" stroke="grey" stroke-width="2" points="1601.85,-183.54 1611.35,-178.86 1601,-176.59 1601.85,-183.54"/>
</g>
<!-- 19 -->
<g id="node20" class="node">
<title>19</title>
<path fill="none" stroke="#97d856" stroke-width="2" stroke-dasharray="5,2" d="M1983.5,-180C1983.5,-180 1825.5,-180 1825.5,-180 1819.5,-180 1813.5,-174 1813.5,-168 1813.5,-168 1813.5,-156 1813.5,-156 1813.5,-150 1819.5,-144 1825.5,-144 1825.5,-144 1983.5,-144 1983.5,-144 1989.5,-144 1995.5,-150 1995.5,-156 1995.5,-156 1995.5,-168 1995.5,-168 1995.5,-174 1989.5,-180 1983.5,-180"/>
<text text-anchor="middle" x="1904.5" y="-165" font-family="sans" font-size="10.00">fgsea</text>
<text text-anchor="middle" x="1904.5" y="-154" font-family="sans" font-size="10.00">contrast: affected_E_vs_unaffected_E</text>
</g>
<!-- 1&#45;&gt;19 -->
<g id="edge32" class="edge">
<title>1&#45;&gt;19</title>
<path fill="none" stroke="grey" stroke-width="2" d="M948.87,-232.34C1063.87,-229.72 1463.63,-218.35 1803.24,-180.07"/>
<polygon fill="grey" stroke="grey" stroke-width="2" points="1803.73,-183.54 1813.27,-178.93 1802.94,-176.58 1803.73,-183.54"/>
</g>
<!-- 20 -->
<g id="node21" class="node">
<title>20</title>
<path fill="none" stroke="#97d856" stroke-width="2" stroke-dasharray="5,2" d="M1123,-180C1123,-180 1038,-180 1038,-180 1032,-180 1026,-174 1026,-168 1026,-168 1026,-156 1026,-156 1026,-150 1032,-144 1038,-144 1038,-144 1123,-144 1123,-144 1129,-144 1135,-150 1135,-156 1135,-156 1135,-168 1135,-168 1135,-174 1129,-180 1123,-180"/>
<text text-anchor="middle" x="1080.5" y="-165" font-family="sans" font-size="10.00">fgsea</text>
<text text-anchor="middle" x="1080.5" y="-154" font-family="sans" font-size="10.00">contrast: D_vs_E_int</text>
</g>
<!-- 1&#45;&gt;20 -->
<g id="edge34" class="edge">
<title>1&#45;&gt;20</title>
<path fill="none" stroke="grey" stroke-width="2" d="M948.51,-219.34C972.02,-209.3 1004.41,-195.48 1031.21,-184.04"/>
<polygon fill="grey" stroke="grey" stroke-width="2" points="1032.62,-187.24 1040.44,-180.1 1029.87,-180.81 1032.62,-187.24"/>
</g>
<!-- 21 -->
<g id="node22" class="node">
<title>21</title>
<path fill="none" stroke="#97d856" stroke-width="2" stroke-dasharray="5,2" d="M1251.5,-180C1251.5,-180 1165.5,-180 1165.5,-180 1159.5,-180 1153.5,-174 1153.5,-168 1153.5,-168 1153.5,-156 1153.5,-156 1153.5,-150 1159.5,-144 1165.5,-144 1165.5,-144 1251.5,-144 1251.5,-144 1257.5,-144 1263.5,-150 1263.5,-156 1263.5,-156 1263.5,-168 1263.5,-168 1263.5,-174 1257.5,-180 1251.5,-180"/>
<text text-anchor="middle" x="1208.5" y="-165" font-family="sans" font-size="10.00">fgsea</text>
<text text-anchor="middle" x="1208.5" y="-154" font-family="sans" font-size="10.00">contrast: D_vs_N_int</text>
</g>
<!-- 1&#45;&gt;21 -->
<g id="edge36" class="edge">
<title>1&#45;&gt;21</title>
<path fill="none" stroke="grey" stroke-width="2" d="M948.67,-225.85C990.99,-216.38 1067.92,-198.91 1143.24,-180.28"/>
<polygon fill="grey" stroke="grey" stroke-width="2" points="1144.51,-183.57 1153.37,-177.76 1142.82,-176.77 1144.51,-183.57"/>
</g>
<!-- 22 -->
<g id="node23" class="node">
<title>22</title>
<path fill="none" stroke="#97d856" stroke-width="2" stroke-dasharray="5,2" d="M1379,-180C1379,-180 1294,-180 1294,-180 1288,-180 1282,-174 1282,-168 1282,-168 1282,-156 1282,-156 1282,-150 1288,-144 1294,-144 1294,-144 1379,-144 1379,-144 1385,-144 1391,-150 1391,-156 1391,-156 1391,-168 1391,-168 1391,-174 1385,-180 1379,-180"/>
<text text-anchor="middle" x="1336.5" y="-165" font-family="sans" font-size="10.00">fgsea</text>
<text text-anchor="middle" x="1336.5" y="-154" font-family="sans" font-size="10.00">contrast: N_vs_E_int</text>
</g>
<!-- 1&#45;&gt;22 -->
<g id="edge38" class="edge">
<title>1&#45;&gt;22</title>
<path fill="none" stroke="grey" stroke-width="2" d="M948.62,-229.44C1009.64,-222.41 1146.61,-205.39 1271.65,-180.04"/>
<polygon fill="grey" stroke="grey" stroke-width="2" points="1272.69,-183.4 1281.78,-177.97 1271.28,-176.55 1272.69,-183.4"/>
</g>
<!-- 2 -->
<g id="node3" class="node">
<title>2</title>
<path fill="none" stroke="#d6d856" stroke-width="2" stroke-dasharray="5,2" d="M936.5,-324C936.5,-324 896.5,-324 896.5,-324 890.5,-324 884.5,-318 884.5,-312 884.5,-312 884.5,-300 884.5,-300 884.5,-294 890.5,-288 896.5,-288 896.5,-288 936.5,-288 936.5,-288 942.5,-288 948.5,-294 948.5,-300 948.5,-300 948.5,-312 948.5,-312 948.5,-318 942.5,-324 936.5,-324"/>
<text text-anchor="middle" x="916.5" y="-303.5" font-family="sans" font-size="10.00">pca_limma</text>
</g>
<!-- 2&#45;&gt;1 -->
<g id="edge14" class="edge">
<title>2&#45;&gt;1</title>
<path fill="none" stroke="grey" stroke-width="2" d="M916.5,-287.7C916.5,-279.98 916.5,-270.71 916.5,-262.11"/>
<polygon fill="grey" stroke="grey" stroke-width="2" points="920,-262.1 916.5,-252.1 913,-262.1 920,-262.1"/>
</g>
<!-- 3 -->
<g id="node4" class="node">
<title>3</title>
<path fill="none" stroke="#56d89a" stroke-width="2" stroke-dasharray="5,2" d="M593.5,-108C593.5,-108 563.5,-108 563.5,-108 557.5,-108 551.5,-102 551.5,-96 551.5,-96 551.5,-84 551.5,-84 551.5,-78 557.5,-72 563.5,-72 563.5,-72 593.5,-72 593.5,-72 599.5,-72 605.5,-78 605.5,-84 605.5,-84 605.5,-96 605.5,-96 605.5,-102 599.5,-108 593.5,-108"/>
<text text-anchor="middle" x="578.5" y="-87.5" font-family="sans" font-size="10.00">ora</text>
</g>
<!-- 3&#45;&gt;0 -->
<g id="edge2" class="edge">
<title>3&#45;&gt;0</title>
<path fill="none" stroke="grey" stroke-width="2" d="M605.59,-83.39C665.79,-70.92 810.76,-40.9 879.35,-26.69"/>
<polygon fill="grey" stroke="grey" stroke-width="2" points="880.2,-30.09 889.28,-24.64 878.78,-23.24 880.2,-30.09"/>
</g>
<!-- 4&#45;&gt;3 -->
<g id="edge15" class="edge">
<title>4&#45;&gt;3</title>
<path fill="none" stroke="grey" stroke-width="2" d="M529.57,-143.7C537.44,-135.22 547.06,-124.86 555.67,-115.58"/>
<polygon fill="grey" stroke="grey" stroke-width="2" points="558.38,-117.81 562.62,-108.1 553.25,-113.05 558.38,-117.81"/>
</g>
<!-- 5 -->
<g id="node6" class="node">
<title>5</title>
<path fill="none" stroke="#56d89a" stroke-width="2" stroke-dasharray="5,2" d="M794.5,-108C794.5,-108 764.5,-108 764.5,-108 758.5,-108 752.5,-102 752.5,-96 752.5,-96 752.5,-84 752.5,-84 752.5,-78 758.5,-72 764.5,-72 764.5,-72 794.5,-72 794.5,-72 800.5,-72 806.5,-78 806.5,-84 806.5,-84 806.5,-96 806.5,-96 806.5,-102 800.5,-108 794.5,-108"/>
<text text-anchor="middle" x="779.5" y="-87.5" font-family="sans" font-size="10.00">ora</text>
</g>
<!-- 5&#45;&gt;0 -->
<g id="edge3" class="edge">
<title>5&#45;&gt;0</title>
<path fill="none" stroke="grey" stroke-width="2" d="M806.57,-75.17C827.68,-64.38 857.19,-49.3 880.33,-37.48"/>
<polygon fill="grey" stroke="grey" stroke-width="2" points="882.18,-40.47 889.49,-32.8 878.99,-34.23 882.18,-40.47"/>
</g>
<!-- 6&#45;&gt;5 -->
<g id="edge17" class="edge">
<title>6&#45;&gt;5</title>
<path fill="none" stroke="grey" stroke-width="2" d="M731.32,-143.7C739.07,-135.22 748.54,-124.86 757.02,-115.58"/>
<polygon fill="grey" stroke="grey" stroke-width="2" points="759.7,-117.85 763.86,-108.1 754.53,-113.12 759.7,-117.85"/>
</g>
<!-- 7 -->
<g id="node8" class="node">
<title>7</title>
<path fill="none" stroke="#56d89a" stroke-width="2" stroke-dasharray="5,2" d="M931.5,-108C931.5,-108 901.5,-108 901.5,-108 895.5,-108 889.5,-102 889.5,-96 889.5,-96 889.5,-84 889.5,-84 889.5,-78 895.5,-72 901.5,-72 901.5,-72 931.5,-72 931.5,-72 937.5,-72 943.5,-78 943.5,-84 943.5,-84 943.5,-96 943.5,-96 943.5,-102 937.5,-108 931.5,-108"/>
<text text-anchor="middle" x="916.5" y="-87.5" font-family="sans" font-size="10.00">ora</text>
</g>
<!-- 7&#45;&gt;0 -->
<g id="edge4" class="edge">
<title>7&#45;&gt;0</title>
<path fill="none" stroke="grey" stroke-width="2" d="M916.5,-71.7C916.5,-63.98 916.5,-54.71 916.5,-46.11"/>
<polygon fill="grey" stroke="grey" stroke-width="2" points="920,-46.1 916.5,-36.1 913,-46.1 920,-46.1"/>
</g>
<!-- 8&#45;&gt;7 -->
<g id="edge19" class="edge">
<title>8&#45;&gt;7</title>
<path fill="none" stroke="grey" stroke-width="2" d="M916.5,-143.7C916.5,-135.98 916.5,-126.71 916.5,-118.11"/>
<polygon fill="grey" stroke="grey" stroke-width="2" points="920,-118.1 916.5,-108.1 913,-118.1 920,-118.1"/>
</g>
<!-- 9 -->
<g id="node10" class="node">
<title>9</title>
<path fill="none" stroke="#56d89a" stroke-width="2" stroke-dasharray="5,2" d="M90.5,-108C90.5,-108 60.5,-108 60.5,-108 54.5,-108 48.5,-102 48.5,-96 48.5,-96 48.5,-84 48.5,-84 48.5,-78 54.5,-72 60.5,-72 60.5,-72 90.5,-72 90.5,-72 96.5,-72 102.5,-78 102.5,-84 102.5,-84 102.5,-96 102.5,-96 102.5,-102 96.5,-108 90.5,-108"/>
<text text-anchor="middle" x="75.5" y="-87.5" font-family="sans" font-size="10.00">ora</text>
</g>
<!-- 9&#45;&gt;0 -->
<g id="edge5" class="edge">
<title>9&#45;&gt;0</title>
<path fill="none" stroke="grey" stroke-width="2" d="M102.86,-83.94C124.21,-80.15 154.66,-75.11 181.5,-72 448.08,-41.07 771.27,-25.24 879.32,-20.54"/>
<polygon fill="grey" stroke="grey" stroke-width="2" points="879.55,-24.03 889.39,-20.1 879.25,-17.04 879.55,-24.03"/>
</g>
<!-- 10&#45;&gt;9 -->
<g id="edge21" class="edge">
<title>10&#45;&gt;9</title>
<path fill="none" stroke="grey" stroke-width="2" d="M59.69,-143.7C62.03,-135.9 64.85,-126.51 67.45,-117.83"/>
<polygon fill="grey" stroke="grey" stroke-width="2" points="70.85,-118.69 70.37,-108.1 64.14,-116.68 70.85,-118.69"/>
</g>
<!-- 11 -->
<g id="node12" class="node">
<title>11</title>
<path fill="none" stroke="#56d89a" stroke-width="2" stroke-dasharray="5,2" d="M232.5,-108C232.5,-108 202.5,-108 202.5,-108 196.5,-108 190.5,-102 190.5,-96 190.5,-96 190.5,-84 190.5,-84 190.5,-78 196.5,-72 202.5,-72 202.5,-72 232.5,-72 232.5,-72 238.5,-72 244.5,-78 244.5,-84 244.5,-84 244.5,-96 244.5,-96 244.5,-102 238.5,-108 232.5,-108"/>
<text text-anchor="middle" x="217.5" y="-87.5" font-family="sans" font-size="10.00">ora</text>
</g>
<!-- 11&#45;&gt;0 -->
<g id="edge6" class="edge">
<title>11&#45;&gt;0</title>
<path fill="none" stroke="grey" stroke-width="2" d="M244.62,-81.49C257.77,-78.11 273.86,-74.36 288.5,-72 510.8,-36.22 781.51,-23.71 879.15,-20.19"/>
<polygon fill="grey" stroke="grey" stroke-width="2" points="879.52,-23.68 889.39,-19.83 879.27,-16.68 879.52,-23.68"/>
</g>
<!-- 12&#45;&gt;11 -->
<g id="edge23" class="edge">
<title>12&#45;&gt;11</title>
<path fill="none" stroke="grey" stroke-width="2" d="M191.15,-143.7C195.14,-135.73 199.95,-126.1 204.37,-117.26"/>
<polygon fill="grey" stroke="grey" stroke-width="2" points="207.61,-118.61 208.95,-108.1 201.35,-115.48 207.61,-118.61"/>
</g>
<!-- 13 -->
<g id="node14" class="node">
<title>13</title>
<path fill="none" stroke="#56d89a" stroke-width="2" stroke-dasharray="5,2" d="M339.5,-108C339.5,-108 309.5,-108 309.5,-108 303.5,-108 297.5,-102 297.5,-96 297.5,-96 297.5,-84 297.5,-84 297.5,-78 303.5,-72 309.5,-72 309.5,-72 339.5,-72 339.5,-72 345.5,-72 351.5,-78 351.5,-84 351.5,-84 351.5,-96 351.5,-96 351.5,-102 345.5,-108 339.5,-108"/>
<text text-anchor="middle" x="324.5" y="-87.5" font-family="sans" font-size="10.00">ora</text>
</g>
<!-- 13&#45;&gt;0 -->
<g id="edge7" class="edge">
<title>13&#45;&gt;0</title>
<path fill="none" stroke="grey" stroke-width="2" d="M351.64,-79.42C360.43,-76.64 370.29,-73.86 379.5,-72 564.81,-34.61 791.65,-23.24 879.4,-20.09"/>
<polygon fill="grey" stroke="grey" stroke-width="2" points="879.52,-23.59 889.4,-19.75 879.28,-16.6 879.52,-23.59"/>
</g>
<!-- 14&#45;&gt;13 -->
<g id="edge25" class="edge">
<title>14&#45;&gt;13</title>
<path fill="none" stroke="grey" stroke-width="2" d="M313.96,-143.7C315.5,-135.98 317.36,-126.71 319.08,-118.11"/>
<polygon fill="grey" stroke="grey" stroke-width="2" points="322.55,-118.6 321.08,-108.1 315.69,-117.22 322.55,-118.6"/>
</g>
<!-- 15&#45;&gt;0 -->
<g id="edge8" class="edge">
<title>15&#45;&gt;0</title>
<path fill="none" stroke="grey" stroke-width="2" d="M1433.35,-144C1360.8,-125.94 1242.62,-96.67 1140.5,-72 1074.73,-56.11 997.98,-38.06 953.54,-27.65"/>
<polygon fill="grey" stroke="grey" stroke-width="2" points="954.29,-24.23 943.76,-25.36 952.7,-31.05 954.29,-24.23"/>
</g>
<!-- 16 -->
<g id="node17" class="node">
<title>16</title>
<path fill="none" stroke="#59d856" stroke-width="2" stroke-dasharray="5,2" d="M1454.5,-252C1454.5,-252 1382.5,-252 1382.5,-252 1376.5,-252 1370.5,-246 1370.5,-240 1370.5,-240 1370.5,-228 1370.5,-228 1370.5,-222 1376.5,-216 1382.5,-216 1382.5,-216 1454.5,-216 1454.5,-216 1460.5,-216 1466.5,-222 1466.5,-228 1466.5,-228 1466.5,-240 1466.5,-240 1466.5,-246 1460.5,-252 1454.5,-252"/>
<text text-anchor="middle" x="1418.5" y="-231.5" font-family="sans" font-size="10.00">make_gmt_python</text>
</g>
<!-- 16&#45;&gt;15 -->
<g id="edge28" class="edge">
<title>16&#45;&gt;15</title>
<path fill="none" stroke="grey" stroke-width="2" d="M1439.02,-215.7C1449.37,-206.97 1462.09,-196.24 1473.34,-186.75"/>
<polygon fill="grey" stroke="grey" stroke-width="2" points="1475.83,-189.23 1481.22,-180.1 1471.32,-183.88 1475.83,-189.23"/>
</g>
<!-- 16&#45;&gt;18 -->
<g id="edge31" class="edge">
<title>16&#45;&gt;18</title>
<path fill="none" stroke="grey" stroke-width="2" d="M1466.52,-221.2C1509.58,-210.63 1573.58,-194.91 1624.22,-182.47"/>
<polygon fill="grey" stroke="grey" stroke-width="2" points="1625.28,-185.82 1634.16,-180.03 1623.61,-179.02 1625.28,-185.82"/>
</g>
<!-- 16&#45;&gt;19 -->
<g id="edge33" class="edge">
<title>16&#45;&gt;19</title>
<path fill="none" stroke="grey" stroke-width="2" d="M1466.71,-226.88C1537.99,-217.73 1675.92,-199.59 1803.3,-180.16"/>
<polygon fill="grey" stroke="grey" stroke-width="2" points="1803.88,-183.61 1813.23,-178.64 1802.82,-176.69 1803.88,-183.61"/>
</g>
<!-- 16&#45;&gt;20 -->
<g id="edge35" class="edge">
<title>16&#45;&gt;20</title>
<path fill="none" stroke="grey" stroke-width="2" d="M1370.28,-224.71C1317.42,-215.38 1229.93,-199.28 1145.05,-180.04"/>
<polygon fill="grey" stroke="grey" stroke-width="2" points="1145.78,-176.62 1135.25,-177.81 1144.22,-183.45 1145.78,-176.62"/>
</g>
<!-- 16&#45;&gt;21 -->
<g id="edge37" class="edge">
<title>16&#45;&gt;21</title>
<path fill="none" stroke="grey" stroke-width="2" d="M1370.32,-216.94C1340.36,-206.95 1301.57,-194.02 1269.48,-183.33"/>
<polygon fill="grey" stroke="grey" stroke-width="2" points="1270.35,-179.93 1259.75,-180.08 1268.13,-186.57 1270.35,-179.93"/>
</g>
<!-- 16&#45;&gt;22 -->
<g id="edge39" class="edge">
<title>16&#45;&gt;22</title>
<path fill="none" stroke="grey" stroke-width="2" d="M1398.23,-215.7C1388,-206.97 1375.44,-196.24 1364.32,-186.75"/>
<polygon fill="grey" stroke="grey" stroke-width="2" points="1366.41,-183.94 1356.54,-180.1 1361.87,-189.26 1366.41,-183.94"/>
</g>
<!-- 17 -->
<g id="node18" class="node">
<title>17</title>
<path fill="none" stroke="#d85656" stroke-width="2" stroke-dasharray="5,2" d="M1467.5,-324C1467.5,-324 1369.5,-324 1369.5,-324 1363.5,-324 1357.5,-318 1357.5,-312 1357.5,-312 1357.5,-300 1357.5,-300 1357.5,-294 1363.5,-288 1369.5,-288 1369.5,-288 1467.5,-288 1467.5,-288 1473.5,-288 1479.5,-294 1479.5,-300 1479.5,-300 1479.5,-312 1479.5,-312 1479.5,-318 1473.5,-324 1467.5,-324"/>
<text text-anchor="middle" x="1418.5" y="-303.5" font-family="sans" font-size="10.00">get_reactome_pathways</text>
</g>
<!-- 17&#45;&gt;16 -->
<g id="edge29" class="edge">
<title>17&#45;&gt;16</title>
<path fill="none" stroke="grey" stroke-width="2" d="M1418.5,-287.7C1418.5,-279.98 1418.5,-270.71 1418.5,-262.11"/>
<polygon fill="grey" stroke="grey" stroke-width="2" points="1422,-262.1 1418.5,-252.1 1415,-262.1 1422,-262.1"/>
</g>
<!-- 18&#45;&gt;0 -->
<g id="edge9" class="edge">
<title>18&#45;&gt;0</title>
<path fill="none" stroke="grey" stroke-width="2" d="M1613.32,-143.94C1516.9,-125.77 1359.49,-96.34 1223.5,-72 1126.27,-54.59 1011.52,-35.05 953.73,-25.28"/>
<polygon fill="grey" stroke="grey" stroke-width="2" points="954.07,-21.78 943.62,-23.57 952.9,-28.68 954.07,-21.78"/>
</g>
<!-- 19&#45;&gt;0 -->
<g id="edge10" class="edge">
<title>19&#45;&gt;0</title>
<path fill="none" stroke="grey" stroke-width="2" d="M1813.49,-145.46C1810.46,-144.96 1807.46,-144.48 1804.5,-144 1593.68,-110.11 1540.96,-101.59 1329.5,-72 1190.98,-52.62 1025.93,-32.26 953.58,-23.47"/>
<polygon fill="grey" stroke="grey" stroke-width="2" points="953.94,-19.99 943.59,-22.26 953.09,-26.94 953.94,-19.99"/>
</g>
<!-- 20&#45;&gt;0 -->
<g id="edge11" class="edge">
<title>20&#45;&gt;0</title>
<path fill="none" stroke="grey" stroke-width="2" d="M1060.72,-143.87C1031.66,-118.71 977.31,-71.65 944.27,-43.04"/>
<polygon fill="grey" stroke="grey" stroke-width="2" points="946.2,-40.09 936.35,-36.19 941.62,-45.38 946.2,-40.09"/>
</g>
<!-- 21&#45;&gt;0 -->
<g id="edge12" class="edge">
<title>21&#45;&gt;0</title>
<path fill="none" stroke="grey" stroke-width="2" d="M1173.28,-143.87C1117.5,-116.75 1009.39,-64.17 952.89,-36.7"/>
<polygon fill="grey" stroke="grey" stroke-width="2" points="954.15,-33.42 943.62,-32.19 951.08,-39.71 954.15,-33.42"/>
</g>
<!-- 22&#45;&gt;0 -->
<g id="edge13" class="edge">
<title>22&#45;&gt;0</title>
<path fill="none" stroke="grey" stroke-width="2" d="M1287.19,-143.96C1234.93,-125.94 1149.97,-96.74 1076.5,-72 1034.28,-57.78 985.69,-41.73 953.23,-31.05"/>
<polygon fill="grey" stroke="grey" stroke-width="2" points="954.3,-27.72 943.71,-27.92 952.11,-34.37 954.3,-27.72"/>
</g>
</g>
</svg>
