<?xml version="1.0" encoding="UTF-8" standalone="no"?>
<!DOCTYPE svg PUBLIC "-//W3C//DTD SVG 1.1//EN"
 "http://www.w3.org/Graphics/SVG/1.1/DTD/svg11.dtd">
<!-- Generated by graphviz version 3.0.0 (0)
 -->
<!-- Title: snakemake_dag Pages: 1 -->
<svg width="297pt" height="404pt"
 viewBox="0.00 0.00 297.00 404.00" xmlns="http://www.w3.org/2000/svg" xmlns:xlink="http://www.w3.org/1999/xlink">
<g id="graph0" class="graph" transform="scale(1 1) rotate(0) translate(4 400)">
<title>snakemake_dag</title>
<polygon fill="white" stroke="transparent" points="-4,4 -4,-400 293,-400 293,4 -4,4"/>
<!-- 0 -->
<g id="node1" class="node">
<title>0</title>
<path fill="none" stroke="#56d8a9" stroke-width="2" d="M86,-36C86,-36 56,-36 56,-36 50,-36 44,-30 44,-24 44,-24 44,-12 44,-12 44,-6 50,0 56,0 56,0 86,0 86,0 92,0 98,-6 98,-12 98,-12 98,-24 98,-24 98,-30 92,-36 86,-36"/>
<text text-anchor="middle" x="71" y="-15.5" font-family="sans" font-size="10.00">all</text>
</g>
<!-- 1 -->
<g id="node2" class="node">
<title>1</title>
<path fill="none" stroke="#56c9d8" stroke-width="2" d="M60.5,-396C60.5,-396 15.5,-396 15.5,-396 9.5,-396 3.5,-390 3.5,-384 3.5,-384 3.5,-372 3.5,-372 3.5,-366 9.5,-360 15.5,-360 15.5,-360 60.5,-360 60.5,-360 66.5,-360 72.5,-366 72.5,-372 72.5,-372 72.5,-384 72.5,-384 72.5,-390 66.5,-396 60.5,-396"/>
<text text-anchor="middle" x="38" y="-375.5" font-family="sans" font-size="10.00">pca_deseq2</text>
</g>
<!-- 1&#45;&gt;0 -->
<g id="edge1" class="edge">
<title>1&#45;&gt;0</title>
<path fill="none" stroke="grey" stroke-width="2" d="M30.31,-359.91C19.21,-333.62 0,-281.45 0,-235 0,-235 0,-235 0,-161 0,-116.48 28.26,-71.61 49.13,-44.56"/>
<polygon fill="grey" stroke="grey" stroke-width="2" points="52.11,-46.43 55.59,-36.42 46.63,-42.07 52.11,-46.43"/>
</g>
<!-- 2 -->
<g id="node3" class="node">
<title>2</title>
<path fill="none" stroke="#d88d56" stroke-width="2" d="M149.5,-252C149.5,-252 60.5,-252 60.5,-252 54.5,-252 48.5,-246 48.5,-240 48.5,-240 48.5,-228 48.5,-228 48.5,-222 54.5,-216 60.5,-216 60.5,-216 149.5,-216 149.5,-216 155.5,-216 161.5,-222 161.5,-228 161.5,-228 161.5,-240 161.5,-240 161.5,-246 155.5,-252 149.5,-252"/>
<text text-anchor="middle" x="105" y="-237" font-family="sans" font-size="10.00">dge_deseq2</text>
<text text-anchor="middle" x="105" y="-226" font-family="sans" font-size="10.00">contrast: covid_vs_sa</text>
</g>
<!-- 1&#45;&gt;2 -->
<g id="edge6" class="edge">
<title>1&#45;&gt;2</title>
<path fill="none" stroke="grey" stroke-width="2" d="M39.02,-359.71C40.72,-341.1 45.19,-311.06 57,-288 62.28,-277.68 70.1,-267.83 77.9,-259.49"/>
<polygon fill="grey" stroke="grey" stroke-width="2" points="80.47,-261.87 84.99,-252.28 75.48,-256.96 80.47,-261.87"/>
</g>
<!-- 3 -->
<g id="node4" class="node">
<title>3</title>
<path fill="none" stroke="#70d856" stroke-width="2" d="M136,-324C136,-324 78,-324 78,-324 72,-324 66,-318 66,-312 66,-312 66,-300 66,-300 66,-294 72,-288 78,-288 78,-288 136,-288 136,-288 142,-288 148,-294 148,-300 148,-300 148,-312 148,-312 148,-318 142,-324 136,-324"/>
<text text-anchor="middle" x="107" y="-303.5" font-family="sans" font-size="10.00">design_deseq2</text>
</g>
<!-- 1&#45;&gt;3 -->
<g id="edge7" class="edge">
<title>1&#45;&gt;3</title>
<path fill="none" stroke="grey" stroke-width="2" d="M55.06,-359.7C63.5,-351.14 73.82,-340.66 83.04,-331.3"/>
<polygon fill="grey" stroke="grey" stroke-width="2" points="85.61,-333.68 90.14,-324.1 80.63,-328.77 85.61,-333.68"/>
</g>
<!-- 2&#45;&gt;0 -->
<g id="edge2" class="edge">
<title>2&#45;&gt;0</title>
<path fill="none" stroke="grey" stroke-width="2" d="M83.29,-215.79C73.24,-206.41 62.36,-193.9 57,-180 39.79,-135.35 51.72,-78.74 61.61,-45.92"/>
<polygon fill="grey" stroke="grey" stroke-width="2" points="65.02,-46.73 64.71,-36.14 58.35,-44.62 65.02,-46.73"/>
</g>
<!-- 5 -->
<g id="node6" class="node">
<title>5</title>
<path fill="none" stroke="#afd856" stroke-width="2" d="M155.5,-180C155.5,-180 78.5,-180 78.5,-180 72.5,-180 66.5,-174 66.5,-168 66.5,-168 66.5,-156 66.5,-156 66.5,-150 72.5,-144 78.5,-144 78.5,-144 155.5,-144 155.5,-144 161.5,-144 167.5,-150 167.5,-156 167.5,-156 167.5,-168 167.5,-168 167.5,-174 161.5,-180 155.5,-180"/>
<text text-anchor="middle" x="117" y="-159.5" font-family="sans" font-size="10.00">select_deg_deseq2</text>
</g>
<!-- 2&#45;&gt;5 -->
<g id="edge9" class="edge">
<title>2&#45;&gt;5</title>
<path fill="none" stroke="grey" stroke-width="2" d="M107.97,-215.7C109.29,-207.98 110.88,-198.71 112.35,-190.11"/>
<polygon fill="grey" stroke="grey" stroke-width="2" points="115.83,-190.55 114.07,-180.1 108.93,-189.37 115.83,-190.55"/>
</g>
<!-- 6 -->
<g id="node7" class="node">
<title>6</title>
<path fill="none" stroke="#d8cb56" stroke-width="2" d="M228,-180C228,-180 198,-180 198,-180 192,-180 186,-174 186,-168 186,-168 186,-156 186,-156 186,-150 192,-144 198,-144 198,-144 228,-144 228,-144 234,-144 240,-150 240,-156 240,-156 240,-168 240,-168 240,-174 234,-180 228,-180"/>
<text text-anchor="middle" x="213" y="-159.5" font-family="sans" font-size="10.00">fgsea</text>
</g>
<!-- 2&#45;&gt;6 -->
<g id="edge10" class="edge">
<title>2&#45;&gt;6</title>
<path fill="none" stroke="grey" stroke-width="2" d="M131.42,-215.88C145.41,-206.81 162.78,-195.55 177.89,-185.76"/>
<polygon fill="grey" stroke="grey" stroke-width="2" points="179.99,-188.57 186.48,-180.19 176.18,-182.69 179.99,-188.57"/>
</g>
<!-- 3&#45;&gt;2 -->
<g id="edge5" class="edge">
<title>3&#45;&gt;2</title>
<path fill="none" stroke="grey" stroke-width="2" d="M106.51,-287.7C106.29,-279.98 106.02,-270.71 105.77,-262.11"/>
<polygon fill="grey" stroke="grey" stroke-width="2" points="109.27,-262 105.49,-252.1 102.28,-262.2 109.27,-262"/>
</g>
<!-- 4 -->
<g id="node5" class="node">
<title>4</title>
<path fill="none" stroke="#d85656" stroke-width="2" d="M120,-108C120,-108 90,-108 90,-108 84,-108 78,-102 78,-96 78,-96 78,-84 78,-84 78,-78 84,-72 90,-72 90,-72 120,-72 120,-72 126,-72 132,-78 132,-84 132,-84 132,-96 132,-96 132,-102 126,-108 120,-108"/>
<text text-anchor="middle" x="105" y="-87.5" font-family="sans" font-size="10.00">ora</text>
</g>
<!-- 4&#45;&gt;0 -->
<g id="edge3" class="edge">
<title>4&#45;&gt;0</title>
<path fill="none" stroke="grey" stroke-width="2" d="M96.6,-71.7C92.73,-63.73 88.05,-54.1 83.76,-45.26"/>
<polygon fill="grey" stroke="grey" stroke-width="2" points="86.83,-43.57 79.31,-36.1 80.53,-46.63 86.83,-43.57"/>
</g>
<!-- 5&#45;&gt;4 -->
<g id="edge8" class="edge">
<title>5&#45;&gt;4</title>
<path fill="none" stroke="grey" stroke-width="2" d="M114.03,-143.7C112.71,-135.98 111.12,-126.71 109.65,-118.11"/>
<polygon fill="grey" stroke="grey" stroke-width="2" points="113.07,-117.37 107.93,-108.1 106.17,-118.55 113.07,-117.37"/>
</g>
<!-- 6&#45;&gt;0 -->
<g id="edge4" class="edge">
<title>6&#45;&gt;0</title>
<path fill="none" stroke="grey" stroke-width="2" d="M201.1,-143.91C187.66,-125.19 164.56,-94.81 141,-72 129.99,-61.33 116.82,-50.87 104.89,-42.09"/>
<polygon fill="grey" stroke="grey" stroke-width="2" points="106.64,-39.03 96.48,-36.02 102.54,-44.71 106.64,-39.03"/>
</g>
<!-- 7 -->
<g id="node8" class="node">
<title>7</title>
<path fill="none" stroke="#5692d8" stroke-width="2" stroke-dasharray="5,2" d="M264,-252C264,-252 192,-252 192,-252 186,-252 180,-246 180,-240 180,-240 180,-228 180,-228 180,-222 186,-216 192,-216 192,-216 264,-216 264,-216 270,-216 276,-222 276,-228 276,-228 276,-240 276,-240 276,-246 270,-252 264,-252"/>
<text text-anchor="middle" x="228" y="-231.5" font-family="sans" font-size="10.00">make_gmt_python</text>
</g>
<!-- 7&#45;&gt;6 -->
<g id="edge11" class="edge">
<title>7&#45;&gt;6</title>
<path fill="none" stroke="grey" stroke-width="2" d="M224.29,-215.7C222.64,-207.98 220.65,-198.71 218.81,-190.11"/>
<polygon fill="grey" stroke="grey" stroke-width="2" points="222.18,-189.15 216.67,-180.1 215.34,-190.62 222.18,-189.15"/>
</g>
<!-- 8 -->
<g id="node9" class="node">
<title>8</title>
<path fill="none" stroke="#56d873" stroke-width="2" stroke-dasharray="5,2" d="M277,-324C277,-324 179,-324 179,-324 173,-324 167,-318 167,-312 167,-312 167,-300 167,-300 167,-294 173,-288 179,-288 179,-288 277,-288 277,-288 283,-288 289,-294 289,-300 289,-300 289,-312 289,-312 289,-318 283,-324 277,-324"/>
<text text-anchor="middle" x="228" y="-303.5" font-family="sans" font-size="10.00">get_reactome_pathways</text>
</g>
<!-- 8&#45;&gt;7 -->
<g id="edge12" class="edge">
<title>8&#45;&gt;7</title>
<path fill="none" stroke="grey" stroke-width="2" d="M228,-287.7C228,-279.98 228,-270.71 228,-262.11"/>
<polygon fill="grey" stroke="grey" stroke-width="2" points="231.5,-262.1 228,-252.1 224.5,-262.1 231.5,-262.1"/>
</g>
</g>
</svg>
